HIERARCHY
ROOT hip
{
	OFFSET 0.000000 0.000000 0.000000 
	CHANNELS 6 Xposition Yposition Zposition Xrotation Zrotation Yrotation
	JOINT abdomen
	{
		OFFSET 0.000000 3.402643 0.000000 
		CHANNELS 3 Xrotation Zrotation Yrotation
		JOINT chest
		{
			OFFSET 0.000000 8.438565 -0.680529 
			CHANNELS 3 Xrotation Zrotation Yrotation
			JOINT neck
			{
				OFFSET 0.000000 10.207942 -0.272212 
				CHANNELS 3 Xrotation Zrotation Yrotation
				JOINT head
				{
					OFFSET 0.000000 3.130431 0.000000 
					CHANNELS 3 Xrotation Zrotation Yrotation
					End Site
					{
						OFFSET 0.000000 3.130435 0.000000 
					}
				}
			}
			JOINT lCollar
			{
				OFFSET 3.470700 6.669187 -0.816635 
				CHANNELS 3 Yrotation Zrotation Xrotation
				JOINT lShldr
				{
					OFFSET 3.198488 0.000000 0.000000 
					CHANNELS 3 Zrotation Yrotation Xrotation
					JOINT lForeArm
					{
						OFFSET 10.139888 0.000000 0.000000 
						CHANNELS 3 Yrotation Zrotation Xrotation
						JOINT lHand
						{
							OFFSET 8.370511 0.000000 0.000000 
							CHANNELS 3 Zrotation Yrotation Xrotation
							End Site
							{
								OFFSET 4.083176 0.000000 0.000000 
							}
						}
					}
				}
			}
			JOINT rCollar
			{
				OFFSET -3.470700 6.669187 -0.816635 
				CHANNELS 3 Yrotation Zrotation Xrotation
				JOINT rShldr
				{
					OFFSET -3.198488 0.000000 0.000000 
					CHANNELS 3 Zrotation Yrotation Xrotation
					JOINT rForeArm
					{
						OFFSET -10.139888 0.000000 0.000000 
						CHANNELS 3 Yrotation Zrotation Xrotation
						JOINT rHand
						{
							OFFSET -8.370511 0.000000 0.000000 
							CHANNELS 3 Zrotation Yrotation Xrotation
							End Site
							{
								OFFSET -4.083176 0.000000 0.000000 
							}
						}
					}
				}
			}
		}
	}
	JOINT lThigh
	{
		OFFSET 5.308129 -1.633274 1.361059 
		CHANNELS 3 Xrotation Zrotation Yrotation
		JOINT lShin
		{
			OFFSET -2.041588 -20.007561 0.000000 
			CHANNELS 3 Xrotation Zrotation Yrotation
			JOINT lFoot
			{
				OFFSET 0.000000 -19.190928 -1.224953 
				CHANNELS 3 Xrotation Yrotation Zrotation
				End Site
				{
					OFFSET 0.000000 -2.449906 4.627600 
				}
			}
		}
	}
	JOINT rThigh
	{
		OFFSET -5.308129 -1.633274 1.361059 
		CHANNELS 3 Xrotation Zrotation Yrotation
		JOINT rShin
		{
			OFFSET 2.041588 -20.007561 0.000000 
			CHANNELS 3 Xrotation Zrotation Yrotation
			JOINT rFoot
			{
				OFFSET 0.000000 -19.190928 -1.224953 
				CHANNELS 3 Xrotation Yrotation Zrotation
				End Site
				{
					OFFSET 0.000000 -2.449906 4.627600 
				}
			}
		}
	}
}
MOTION
Frames: 11
Frame Time: 0.033333
213.872238 44.891994 150.595901 0.000000 3.505859 -134.404297 21.004122 -0.859260 -4.608753 -20.839844 0.000000 0.000000 27.440451 17.574354 7.073219 -2.520860 -1.255023 0.218345 -4.754609 -0.109182 -0.002653 -75.057358 -8.474177 8.470058 -4.898643 -13.475546 26.833683 3.246535 -0.222723 2.681916 4.754609 0.109182 -0.002672 88.369995 4.167967 -11.584396 2.525571 -0.045767 12.997504 1.721502 3.804223 34.325062 -22.281990 14.304276 3.968231 43.350803 -1.916719 -2.238881 -22.411892 2.449203 -4.129647 -5.244856 -28.357222 -27.597057 31.107397 14.366555 -5.573370 -14.846823 10.124208 9.260303 
213.594559 44.889973 150.756332 -0.078298 3.808590 -134.194641 21.029448 -1.015918 -4.471326 -20.839844 0.000000 0.000000 27.589153 17.426476 6.925053 -2.520860 -1.255023 0.218345 -4.754609 -0.109182 -0.002653 -74.609848 -8.275928 8.219400 -4.875193 -13.357004 26.508568 2.733169 0.299228 2.262670 4.754609 0.109182 -0.002672 88.499420 4.424871 -11.294903 2.534179 -0.039599 12.763172 1.812701 4.124291 33.754227 -22.580526 14.164647 3.959117 43.545910 -2.170660 -2.366394 -22.690277 2.094524 -3.772955 -5.059610 -28.367914 -27.812334 30.405054 14.344369 -6.022513 -14.159541 9.963806 9.600153 
213.332077 44.863575 150.921799 -0.166434 4.062482 -133.957077 21.095184 -1.231327 -4.316755 -20.839844 0.000000 0.000000 27.786737 17.350042 6.655759 -2.520860 -1.255023 0.218345 -4.754609 -0.109182 -0.002653 -74.200912 -8.019456 8.064733 -4.812231 -13.070270 26.422516 2.340293 0.268981 1.960825 4.754609 0.109182 -0.002672 88.633255 4.671425 -11.122413 2.533955 -0.048369 12.704423 1.854630 4.408110 33.691959 -22.898897 13.954155 3.923142 43.821117 -2.372688 -2.461107 -22.961550 1.766278 -3.649796 -4.991192 -28.444780 -27.897675 29.893898 14.208340 -6.426087 -13.627558 9.551465 10.102231 
213.088394 44.818386 151.090408 -0.303580 4.277284 -133.684677 21.142435 -1.508563 -4.164249 -20.839844 0.000000 0.000000 28.039885 17.376371 6.347754 -2.520860 -1.255023 0.218345 -4.754609 -0.109182 -0.002653 -73.909767 -7.604559 8.052540 -4.879457 -12.453190 26.519804 2.295081 0.102499 1.673595 4.754609 0.109182 -0.002672 88.768990 4.789947 -11.115383 2.525379 -0.044932 12.948685 2.022642 4.804711 34.312248 -23.256380 13.502330 3.723076 44.037842 -2.297863 -2.485772 -23.179993 1.840051 -3.908203 -4.941628 -28.700920 -28.044788 29.580118 14.129493 -6.567604 -13.175446 9.410430 10.560835 
212.853348 44.786396 151.265518 -0.489779 4.482259 -133.407303 21.130798 -1.818529 -4.063436 -20.839844 0.000000 0.000000 28.273474 17.464886 6.104734 -2.520860 -1.255023 0.218345 -4.754609 -0.109182 -0.002653 -73.468048 -7.096284 7.895144 -4.864555 -12.006970 26.844646 2.882943 -0.136833 1.809137 4.754609 0.109182 -0.002672 88.976555 5.032139 -11.030746 2.516251 -0.048806 13.046319 2.008386 5.174075 34.744427 -23.621092 12.996865 3.496363 44.157024 -2.268520 -2.462993 -23.357552 1.973469 -4.196914 -4.971646 -28.963684 -28.156372 29.258877 14.012735 -6.642353 -12.781878 9.352718 10.666006 
212.627426 44.767612 151.444260 -0.725122 4.726186 -133.145477 21.089666 -2.157406 -4.024113 -20.839844 0.000000 0.000000 28.402945 17.587772 5.992142 -2.520860 -1.255023 0.218345 -4.754609 -0.109182 -0.002653 -72.684677 -6.636146 7.441763 -4.539569 -12.063040 27.475986 3.966117 -0.874408 2.744479 4.754609 0.109182 -0.002672 89.313698 5.540943 -10.726466 2.524655 -0.051520 12.763000 1.854450 5.061233 34.505524 -24.056240 12.408542 3.163871 44.290855 -2.167827 -2.355689 -23.596237 2.259706 -4.251185 -5.020362 -29.208014 -28.312347 28.838951 13.924956 -6.803325 -12.364465 9.344494 10.676491 
212.416733 44.737659 151.610214 -0.960715 5.018829 -132.964584 21.097586 -2.482730 -3.992986 -20.839844 0.000000 0.000000 28.349293 17.714638 5.926219 -2.520860 -1.255023 0.218345 -4.754609 -0.109182 -0.002653 -72.159286 -6.236454 7.222888 -4.039623 -11.573229 28.362333 5.070815 -2.180978 3.809835 4.754609 0.109182 -0.002672 89.617393 6.097073 -10.334509 2.532813 -0.052996 12.401569 1.986133 5.112723 34.008640 -24.575363 11.882178 2.893398 44.570103 -2.063254 -2.284761 -23.915909 2.485351 -4.127378 -4.884334 -29.587137 -29.034739 28.386406 14.193195 -7.002442 -11.869653 10.050409 10.645970 
212.216705 44.687405 151.768143 -1.147579 5.350495 -132.938599 21.214899 -2.811367 -3.898041 -20.839844 0.000000 0.000000 28.132692 17.854687 5.850514 -2.520860 -1.255023 0.218345 -4.754609 -0.109182 -0.002653 -71.407616 -5.758136 6.723626 -3.757315 -11.369118 29.151423 6.318163 -3.239435 5.133767 4.754609 0.109182 -0.002672 89.869690 6.532112 -9.949677 2.532558 -0.051836 12.333220 2.086480 5.844765 33.821121 -25.119253 11.714809 2.909949 45.059834 -2.177828 -2.216349 -24.422819 2.350109 -3.823324 -4.953947 -29.886547 -29.513432 28.136827 14.394267 -7.122212 -11.491754 10.595435 10.631226 
212.022781 44.621403 151.930588 -1.266052 5.711505 -133.123444 21.441715 -3.140613 -3.718766 -20.839844 0.000000 0.000000 27.932117 17.965204 5.785925 -2.520860 -1.255023 0.218345 -4.754609 -0.109182 -0.002653 -70.227303 -5.185890 5.814641 -3.782164 -11.757174 29.729887 7.531654 -3.964433 6.613544 4.754609 0.109182 -0.002672 90.064346 6.874666 -9.562933 2.533546 -0.046547 12.597018 1.882564 6.952286 33.962658 -25.598518 11.959247 3.369762 45.641403 -2.463902 -2.194154 -24.956366 1.791766 -3.511513 -5.607699 -29.984322 -29.098087 28.350311 14.217356 -6.932888 -11.302666 10.317569 10.695025 
211.839005 44.546780 152.081894 -1.325897 6.111657 -133.558350 21.727257 -3.435945 -3.490958 -20.839844 0.000000 0.000000 27.861261 17.974966 5.773221 -2.520860 -1.255023 0.218345 -4.754609 -0.109182 -0.002653 -69.224960 -4.617695 5.228615 -3.910688 -11.528853 29.969641 8.063794 -4.639966 7.134497 4.754609 0.109182 -0.002672 90.145950 7.090608 -9.174069 2.526035 -0.038007 13.114841 1.716642 8.013463 34.262486 -26.028030 12.310584 3.830470 46.214924 -2.698224 -2.144689 -25.495907 1.402602 -3.526907 -6.680216 -30.038681 -28.244793 29.029127 13.947900 -6.524407 -11.088258 9.759532 10.509480 
211.664871 44.466564 152.190994 -1.346817 6.599755 -134.226059 21.991486 -3.675416 -3.272557 -20.839844 0.000000 0.000000 27.976608 17.837139 5.895947 -2.520860 -1.255023 0.218345 -4.754609 -0.109182 -0.002653 -68.450867 -4.163114 5.160101 -4.030484 -10.600203 29.857199 7.814892 -5.199626 6.365136 4.754609 0.109182 -0.002672 90.128311 7.210288 -8.772006 2.519837 -0.024731 13.915998 1.517061 8.728233 34.715885 -26.585724 12.389458 3.736488 46.921829 -2.568981 -1.948407 -26.089909 1.882263 -3.411505 -8.136742 -29.846905 -27.011019 29.900604 13.568396 -6.200166 -10.803612 8.839080 9.859958 
